<?xml version="1.0" encoding="utf-8"?>
<!-- Generator: Adobe Illustrator 27.5.0, SVG Export Plug-In . SVG Version: 6.00 Build 0)  -->
<svg version="1.1" id="Capa_2" xmlns="http://www.w3.org/2000/svg" xmlns:xlink="http://www.w3.org/1999/xlink" x="0px" y="0px"
	 viewBox="0 0 2478 1817" style="enable-background:new 0 0 2478 1817;" xml:space="preserve">
<g>
	<g>
		<g>
			<path style="fill:#1C3A6C;" d="M2123.625,630.289c-4.563-10.324-9.125-20.652-13.688-30.977
				c-20.141,14.836-40.469,29.051-60.938,42.781c4.574,12.766,6.297,27.031,3.645,37.707
				C2076.512,664.016,2100.191,647.551,2123.625,630.289z"/>
			<path style="fill:#1C3A6C;" d="M367.23,599.313c-4.563,10.324-9.121,20.652-13.68,30.977
				c23.434,17.262,47.109,33.727,70.977,49.512c-2.656-10.676-0.926-24.941,3.648-37.707
				C407.707,628.363,387.375,614.148,367.23,599.313z"/>
		</g>
		<path style="fill:#248135;" d="M671.156,738.047c2.133-1.238,4.117-2.746,5.914-4.477c3.504-3.375,6.293-7.617,8.004-12.551
			l-12.379-3.91l-5.859-1.848l-2.336-0.738l-0.445-0.144l-6.059-1.91l-6.066-1.918l-0.438-0.137l-2.336-0.738l-5.867-1.852
			l-12.371-3.906c-1.285,5.063-1.305,10.184-0.258,14.996c0.539,2.469,1.355,4.859,2.438,7.113
			c-37.129,28.449-89.457,73.465-138.211,132.727c-2.371,2.879-4.738,5.785-7.09,8.731c-20.176,25.309,45.215,80.254,65.402,54.945
			c1.027-1.293,2.031-2.578,3.051-3.875c29.906-38.035,72.383-137.262,91.398-171.57c-3.066,39.344-22.293,145.918-18.383,194.629
			c0.133,1.656,0.254,3.305,0.398,4.961c2.828,32.578,87.012,24.875,84.18-7.699c-0.328-3.801-0.692-7.566-1.078-11.316
			C704.902,850.422,686.277,783,671.156,738.047z"/>
		<path style="fill:#248135;" d="M1844.078,726.027c1.078-2.254,1.895-4.644,2.43-7.113c1.047-4.813,1.031-9.934-0.254-14.996
			l-12.371,3.906l-5.863,1.852l-2.34,0.738l-0.438,0.137l-6.066,1.918l-6.059,1.91l-0.441,0.144l-2.34,0.738l-5.859,1.848
			l-12.375,3.91c1.707,4.934,4.496,9.176,8,12.551c1.797,1.73,3.781,3.238,5.918,4.477
			c-15.125,44.953-33.746,112.375-41.613,189.512c-0.383,3.75-0.746,7.516-1.074,11.316c-2.836,32.574,81.352,40.277,84.18,7.699
			c0.141-1.656,0.262-3.305,0.398-4.961c3.906-48.711-15.316-155.285-18.383-194.629c19.012,34.309,61.488,133.535,91.395,171.57
			c1.023,1.297,2.023,2.582,3.047,3.875c20.191,25.309,85.582-29.637,65.406-54.945c-2.352-2.945-4.719-5.852-7.09-8.731
			C1933.535,799.492,1881.203,754.477,1844.078,726.027z"/>
		<g>
			<path style="fill:#E5CBB3;" d="M819.684,825.746c-2.516-3.867-4.68-8.273-6.547-13.031
				c-40.875-15.363-77.352-33.031-107.375-49.539c25.633,32.539,54.629,73.965,80.547,122.102c3.316,2.859,6.664,5.723,10.063,8.563
				c8.394,7,20.078,3.855,30.883-4.145c-0.195-6.715,0.324-13.066,1.656-18.828c-15.301-7.414-94.289-85.086-94.289-85.086
				S791.098,809.371,819.684,825.746z"/>
			<path style="fill:#E5CBB3;" d="M838.754,841.684c1.477,2.738,2.137,5.457,2.219,8.09c2.23-1.828,4.691-3.418,7.531-4.594
				c1.547-0.641,3.09-1.258,4.633-1.891c-1.664,0-3.32,0.023-4.988,0.023C844.809,843.313,841.707,842.676,838.754,841.684z"/>
			<path style="fill:#E5CBB3;" d="M556.25,918.555c-0.488,1.582-0.981,3.156-1.457,4.75c-4.387,14.637,10.988,27.996,29.547,34.875
				c19.106,5.019,39.137,2.84,43.527-11.801c0.477-1.586,0.934-3.172,1.398-4.766c-3.91-48.711,15.316-155.285,18.383-194.629
				C628.633,781.293,586.156,880.52,556.25,918.555z"/>
			<path style="fill:#E5CBB3;" d="M439.754,695.977c-0.922,0.07-1.828,0.141-2.754,0.227c-31.738,2.785-24.527,89.215,7.219,86.422
				c4.367-0.383,8.695-0.816,13.004-1.277c47.805-24.852,94.476-42.379,133.496-54.504
				C547.59,722.168,494.848,713.133,439.754,695.977z"/>
			<path style="fill:#E5CBB3;" d="M1624.031,843.289c1.555,0.633,3.09,1.25,4.637,1.891c2.84,1.176,5.297,2.769,7.527,4.598
				c0.086-2.637,0.75-5.355,2.227-8.094c-2.953,0.992-6.055,1.629-9.395,1.629C1627.355,843.313,1625.699,843.289,1624.031,843.289z
				"/>
			<path style="fill:#E5CBB3;" d="M1657.492,825.742c28.582-16.371,85.063-39.961,85.063-39.961s-79,77.676-94.297,85.09
				c1.336,5.758,1.859,12.109,1.656,18.824c10.809,8,22.496,11.145,30.891,4.145c3.391-2.84,6.742-5.703,10.059-8.563
				c25.922-48.137,54.914-89.563,80.551-122.102c-30.027,16.508-66.5,34.176-107.379,49.539
				C1662.168,817.473,1660.008,821.879,1657.492,825.742z"/>
			<path style="fill:#E5CBB3;" d="M1920.922,918.555c-29.906-38.035-72.383-137.262-91.395-171.57
				c3.066,39.344,22.289,145.918,18.383,194.629c0.465,1.594,0.914,3.18,1.391,4.766c4.395,14.641,24.426,16.82,43.535,11.801
				c18.555-6.879,33.926-20.238,29.539-34.875C1921.906,921.711,1921.41,920.137,1920.922,918.555z"/>
			<path style="fill:#E5CBB3;" d="M2040.176,696.203c-0.93-0.086-1.84-0.156-2.762-0.227
				c-55.09,17.156-107.836,26.191-150.961,30.867c39.02,12.125,85.695,29.652,133.496,54.504c4.313,0.461,8.641,0.894,13.004,1.277
				C2064.703,785.418,2071.914,698.988,2040.176,696.203z"/>
		</g>
		<g>
			<path style="fill:#E9521A;" d="M806.242,784.906c-45.254-19.879-108.758-49.48-108.758-49.48s57.68,16.711,107.543,32.102
				c-0.051-2.867-0.012-5.734,0.098-8.598l-53.844-17.004l-63.773-20.137l-1.746-0.555l-0.688-0.215
				c-1.711,4.934-4.5,9.176-8.004,12.551c-1.797,1.73-3.781,3.238-5.914,4.477c15.121,44.953,33.746,112.375,41.609,189.512
				c1.672,3.363,3.344,6.727,5.086,10.102c14.906,28.895,89.594-11.688,74.688-40.59c-2.051-3.98-4.133-7.902-6.23-11.793
				c-25.918-48.137-54.914-89.563-80.547-122.102c30.023,16.508,66.5,34.176,107.375,49.539
				C809.855,804.367,807.539,794.887,806.242,784.906z"/>
			<path style="fill:#E9521A;" d="M630.918,703.918l-0.688-0.219l-1.75-0.551l-63.77-20.141l-135.824-42.898
				c-0.25,0.652-0.473,1.32-0.711,1.984c-4.574,12.766-6.305,27.031-3.648,37.707c1.863,7.496,5.855,13.23,12.582,15.355
				c0.887,0.277,1.762,0.539,2.645,0.82c55.094,17.156,107.836,26.191,150.965,30.867c-39.02,12.125-85.692,29.652-133.496,54.504
				c-3.859,2.016-7.734,4.051-11.609,6.156c-28.164,15.305,11.379,91.965,39.539,76.672c3.289-1.793,6.516-3.602,9.734-5.422
				c48.754-59.262,101.082-104.277,138.211-132.727c-1.082-2.254-1.898-4.644-2.438-7.113
				C629.613,714.102,629.633,708.981,630.918,703.918z"/>
			<path style="fill:#E9521A;" d="M1792.102,721.019l-0.688,0.215l-1.746,0.555l-63.777,20.137l-53.84,17.004
				c0.109,2.863,0.141,5.731,0.098,8.598c49.859-15.391,107.539-32.102,107.539-32.102s-63.504,29.602-108.758,49.48
				c-1.297,9.981-3.617,19.461-6.895,27.809c40.879-15.363,77.352-33.031,107.379-49.539
				c-25.637,32.539-54.629,73.965-80.551,122.102c-2.094,3.891-4.18,7.813-6.234,11.793c-14.906,28.902,59.785,69.484,74.691,40.59
				c1.738-3.375,3.414-6.738,5.086-10.102c7.867-77.137,26.488-144.559,41.613-189.512c-2.137-1.238-4.121-2.746-5.918-4.477
				C1796.598,730.195,1793.809,725.953,1792.102,721.019z"/>
			<path style="fill:#E9521A;" d="M2049,642.094c-0.238-0.664-0.461-1.332-0.711-1.984l-135.828,42.898l-63.766,20.141l-1.754,0.551
				l-0.688,0.219c1.285,5.063,1.301,10.184,0.254,14.996c-0.535,2.469-1.352,4.859-2.43,7.113
				c37.125,28.449,89.457,73.465,138.207,132.727c3.219,1.82,6.445,3.629,9.734,5.422c28.156,15.293,67.703-61.367,39.535-76.672
				c-3.867-2.106-7.75-4.141-11.605-6.156c-47.801-24.852-94.477-42.379-133.496-54.504c43.125-4.676,95.871-13.711,150.961-30.867
				c0.891-0.281,1.758-0.543,2.652-0.82c6.727-2.125,10.715-7.859,12.578-15.355C2055.297,669.125,2053.574,654.859,2049,642.094z"
				/>
		</g>
		<g>
			<path style="fill:#FCE5D5;" d="M819.684,825.746c-28.586-16.375-85.063-39.965-85.063-39.965s78.988,77.672,94.289,85.086
				c2.023-8.734,5.926-16.059,12.063-21.094c-0.082-2.633-0.742-5.352-2.219-8.09C831.113,839.109,824.727,833.508,819.684,825.746z
				"/>
			<path style="fill:#FCE5D5;" d="M1657.492,825.742c-5.043,7.766-11.426,13.367-19.07,15.941c-1.477,2.738-2.141,5.457-2.227,8.094
				c6.141,5.035,10.043,12.355,12.063,21.094c15.297-7.414,94.297-85.09,94.297-85.09S1686.074,809.371,1657.492,825.742z"/>
		</g>
		<g>
			<path style="fill:#F6A117;" d="M697.484,735.426c0,0,63.504,29.602,108.758,49.48c-0.734-5.683-1.121-11.523-1.215-17.379
				C755.164,752.137,697.484,735.426,697.484,735.426z"/>
			<path style="fill:#F6A117;" d="M1672.148,767.527c-0.098,5.856-0.48,11.695-1.219,17.379
				c45.254-19.879,108.758-49.48,108.758-49.48S1722.008,752.137,1672.148,767.527z"/>
		</g>
		<path style="fill:#2E7334;" d="M1452.266,1113.297c-2.539-6.387-5.121-12.684-7.727-18.953
			c-53.52-128.934-120.586-235.223-169.977-304.609c3.027-3.305,5.684-6.98,7.891-10.949c4.301-7.738,6.926-16.594,7.324-26.047
			h-23.395h-11.078h-4.426h-0.844h-11.449h-11.461h-0.84h-4.418h-11.074h-23.398c0.398,9.453,3.02,18.309,7.324,26.047
			c2.207,3.969,4.863,7.644,7.887,10.949c-49.387,69.387-116.461,175.676-169.973,304.609c-2.602,6.27-5.188,12.567-7.723,18.953
			c-21.754,54.707,119.641,113.926,141.395,59.215c1.109-2.789,2.172-5.566,3.266-8.355
			c31.961-81.988,53.938-276.531,69.016-346.156c15.082,69.625,37.051,264.168,69.016,346.156c1.086,2.789,2.156,5.566,3.266,8.355
			C1332.617,1227.223,1474.008,1168.004,1452.266,1113.297z"/>
		<g>
			<path style="fill:#D9CEC3;" d="M1648.258,870.871c-2.02-8.738-5.922-16.059-12.063-21.094c-2.23-1.828-4.688-3.422-7.527-4.598
				c-1.547-0.641-3.082-1.258-4.637-1.891c-104.027-0.414-199.805-13.582-276.699-29.016
				c61.113,42.211,132.633,97.938,202.324,166.93c7.207,3.148,14.461,6.262,21.805,9.305c37.59,15.582,77.012-51.82,78.453-100.813
				C1650.117,882.981,1649.594,876.629,1648.258,870.871z"/>
			<path style="fill:#D9CEC3;" d="M1238.586,818c-15.078,69.625-37.055,264.168-69.016,346.156c-0.027,3-0.063,5.988-0.063,8.996
				c0,27.668,33.48,42.363,69.078,44.121c35.598-1.758,69.07-16.453,69.07-44.121c0-3.008-0.031-5.996-0.055-8.996
				C1275.637,1082.168,1253.668,887.625,1238.586,818z"/>
			<path style="fill:#D9CEC3;" d="M848.504,845.18c-2.84,1.176-5.301,2.766-7.531,4.594c-6.137,5.035-10.039,12.359-12.063,21.094
				c-1.332,5.762-1.852,12.113-1.656,18.828c1.449,49,40.871,116.395,78.449,100.813c7.348-3.043,14.606-6.156,21.809-9.305
				c69.691-68.992,141.211-124.719,202.332-166.93c-76.902,15.434-172.676,28.602-276.707,29.016
				C851.594,843.922,850.051,844.539,848.504,845.18z"/>
		</g>
		<g>
			<path style="fill:#EC6730;" d="M1672.051,758.93c-0.078-2.066-0.16-4.137-0.32-6.191h-256.781h-120.563h-3.313h-1.297
				c-0.398,9.453-3.023,18.309-7.324,26.047c-2.207,3.969-4.863,7.644-7.891,10.949c49.391,69.387,116.457,175.676,169.977,304.609
				c4.625,4.895,9.258,9.793,14.008,14.668c40.711,41.781,148.695-69.047,107.977-110.836c-5.602-5.75-11.23-11.391-16.867-16.973
				c-69.691-68.992-141.211-124.719-202.324-166.93c76.895,15.434,172.672,28.602,276.699,29.016c1.668,0,3.324,0.023,4.996,0.023
				c3.34,0,6.441-0.637,9.395-1.629c7.645-2.574,14.027-8.176,19.07-15.941c2.516-3.863,4.676-8.27,6.543-13.027
				c3.277-8.348,5.598-17.828,6.895-27.809c0.738-5.683,1.121-11.523,1.219-17.379C1672.191,764.66,1672.16,761.793,1672.051,758.93
				z"/>
			<path style="fill:#EC6730;" d="M1187.395,752.738h-1.297h-3.313h-120.559H805.445c-0.16,2.055-0.242,4.125-0.32,6.191
				c-0.109,2.863-0.148,5.731-0.098,8.598c0.094,5.856,0.48,11.695,1.215,17.379c1.297,9.981,3.613,19.461,6.894,27.809
				c1.867,4.758,4.031,9.164,6.547,13.031c5.043,7.762,11.43,13.363,19.07,15.938c2.953,0.992,6.055,1.629,9.394,1.629
				c1.668,0,3.324-0.023,4.988-0.023c104.031-0.414,199.805-13.582,276.707-29.016c-61.121,42.211-132.641,97.938-202.332,166.93
				c-5.633,5.582-11.262,11.223-16.867,16.973c-40.711,41.789,67.27,152.617,107.984,110.836c4.75-4.875,9.379-9.773,14.004-14.668
				c53.512-128.934,120.586-235.223,169.973-304.609c-3.023-3.305-5.68-6.98-7.887-10.949
				C1190.414,771.047,1187.793,762.191,1187.395,752.738z"/>
		</g>
	</g>
	<g>
		<path style="fill:#FCE5D5;" d="M551.887,728.074c0,0-126.277,21.852-126.816,14.871c-0.539-6.981-3.469-29.453,19.801-31.348
			C468.137,709.707,551.887,728.074,551.887,728.074z"/>
		<path style="fill:#F6A117;" d="M596.977,735.555c0,0-141.973,98.672-145.504,92.68c-3.523-5.988-12.758-21.313,7.223-33.691
			C478.672,782.156,596.977,735.555,596.977,735.555z"/>
		<path style="fill:#4FAC3C;" d="M634.09,735.531c0,0-122.32,165.797-127.223,160.93c-4.906-4.863-17.645-17.242-1.426-34.473
			C521.656,844.77,634.09,735.531,634.09,735.531z"/>
		<path style="fill:#4FAC3C;" d="M668.637,746.445c0,0,10.352,207.691,17.082,206.5c6.719-1.195,24.031-4.086,20.058-27.688
			C701.793,901.656,668.637,746.445,668.637,746.445z"/>
		<path style="fill:#FCE5D5;" d="M634.082,789.121c0,0-51.695,162.711-45.031,164.231c6.66,1.516,23.746,5.613,28.813-17.766
			C622.934,912.199,634.082,789.121,634.082,789.121z"/>
		<path style="fill:#F6A117;" d="M695.789,766.762c0,0,63.375,163.52,69.566,160.598c6.203-2.918,22.223-10.262,12.484-32.031
			C768.105,873.563,695.789,766.762,695.789,766.762z"/>
		<path style="fill:#F6A117;" d="M616.543,709.863c0,0-135.172-23.906-159.649-31.344c-24.473-7.438-20.875-19.844-19.551-24.688
			C438.672,648.984,616.543,709.863,616.543,709.863z"/>
		<path style="fill:#4FAC3C;" d="M649.148,727.574c-2.383,2.082-12.293-1.27-13.551-14.789c-0.457-4.836,9.227,0.644,12.301,4.336
			C650.965,720.809,651.527,725.496,649.148,727.574z"/>
	</g>
	<g>
		<path style="fill:#F0EBE7;" d="M1063.414,837.57c0,0-206.773,106.609-211.316,94.848c-4.539-11.758-21.238-48.981,17.965-64.938
			C909.262,851.527,1063.414,837.57,1063.414,837.57z"/>
		<path style="fill:#F0EBE7;" d="M1408.883,837.57c0,0,206.773,106.609,211.32,94.848c4.547-11.758,21.234-48.981-17.973-64.938
			C1563.031,851.527,1408.883,837.57,1408.883,837.57z"/>
		<path style="fill:#F8A916;" d="M1145.16,825.898c0,0-194.105,247.844-203.297,239.418c-9.203-8.426-33.063-29.848-4.981-62.129
			C964.969,970.902,1145.16,825.898,1145.16,825.898z"/>
		<path style="fill:#559F4A;" d="M1209.242,805.609c0,0-125.402,353.051-136.395,347.324c-10.996-5.723-39.398-20.16-20.313-58.75
			C1071.625,1055.586,1209.242,805.609,1209.242,805.609z"/>
		<path style="fill:#559F4A;" d="M1274.563,805.609c0,0,125.406,353.051,136.402,347.324c10.992-5.723,39.398-20.16,20.316-58.75
			C1412.184,1055.586,1274.563,805.609,1274.563,805.609z"/>
		<path style="fill:#F0EBE7;" d="M1236.969,898.164c0,0-5.023,309.211,7.266,308.199c12.277-1.004,43.91-3.262,40.559-46.398
			C1281.449,1116.816,1236.969,898.164,1236.969,898.164z"/>
		<path style="fill:#F8A916;" d="M1331.965,825.898c0,0,194.102,247.844,203.297,239.418c9.203-8.426,33.059-29.848,4.977-62.129
			C1512.156,970.902,1331.965,825.898,1331.965,825.898z"/>
		<path style="fill:#F8A916;" d="M1318.672,770.852c0,0,245.82,32.438,291.949,32.941c46.125,0.508,46.324-22.875,46.551-31.969
			C1657.391,762.727,1318.672,770.852,1318.672,770.852z"/>
		<path style="fill:#F8A916;" d="M1165.652,770.852c0,0-245.82,32.438-291.949,32.941c-46.117,0.508-46.328-22.875-46.547-31.969
			C826.938,762.727,1165.652,770.852,1165.652,770.852z"/>
		<path style="fill:#559F4A;" d="M1231.121,783.66c-3.027,4.898-21.879,4.504-31.063-18.156c-3.285-8.094,16.289-3.914,23.496,0.785
			C1230.762,770.984,1234.156,778.766,1231.121,783.66z"/>
	</g>
	<g>
		<path style="fill:#FCE5D5;" d="M1925.285,728.074c0,0,126.281,21.852,126.82,14.871c0.535-6.981,3.469-29.453-19.805-31.348
			C2009.035,709.707,1925.285,728.074,1925.285,728.074z"/>
		<path style="fill:#F6A117;" d="M1880.195,735.555c0,0,141.973,98.672,145.504,92.68c3.523-5.988,12.758-21.313-7.223-33.691
			C1998.5,782.156,1880.195,735.555,1880.195,735.555z"/>
		<path style="fill:#4FAC3C;" d="M1843.082,735.531c0,0,122.324,165.797,127.227,160.93c4.906-4.863,17.645-17.242,1.422-34.473
			C1955.516,844.77,1843.082,735.531,1843.082,735.531z"/>
		<path style="fill:#4FAC3C;" d="M1808.539,746.445c0,0-10.355,207.691-17.086,206.5c-6.719-1.195-24.031-4.086-20.055-27.688
			C1775.379,901.656,1808.539,746.445,1808.539,746.445z"/>
		<path style="fill:#FCE5D5;" d="M1843.09,789.121c0,0,51.699,162.711,45.031,164.231c-6.656,1.516-23.746,5.613-28.813-17.766
			C1854.242,912.199,1843.09,789.121,1843.09,789.121z"/>
		<path style="fill:#F6A117;" d="M1781.383,766.762c0,0-63.375,163.52-69.57,160.598c-6.195-2.918-22.215-10.262-12.48-32.031
			C1709.066,873.563,1781.383,766.762,1781.383,766.762z"/>
		<path style="fill:#F6A117;" d="M1860.629,709.863c0,0,135.168-23.906,159.648-31.344c24.477-7.438,20.875-19.844,19.551-24.688
			C2038.496,648.984,1860.629,709.863,1860.629,709.863z"/>
		<path style="fill:#4FAC3C;" d="M1828.023,727.574c2.383,2.082,12.297-1.27,13.555-14.789c0.453-4.836-9.23,0.644-12.301,4.336
			C1826.203,720.809,1825.645,725.496,1828.023,727.574z"/>
	</g>
</g>
</svg>
