<?xml version="1.0" encoding="utf-8"?>
<!-- Generator: Adobe Illustrator 27.5.0, SVG Export Plug-In . SVG Version: 6.00 Build 0)  -->
<svg version="1.1" id="Capa_2" xmlns="http://www.w3.org/2000/svg" xmlns:xlink="http://www.w3.org/1999/xlink" x="0px" y="0px"
	 viewBox="0 0 2122 2122" style="enable-background:new 0 0 2122 2122;" xml:space="preserve">
<g>
	<g>
		<g>
			<path style="fill:#4A6DB3;" d="M970.43,952.402c2.031,5.969,3.891,13.117,5.555,21.098c6.664-2.871,13.309-5.797,19.926-8.781
				c-4.699-6.633-8.656-12.848-11.641-18.387C979.676,948.394,975.051,950.394,970.43,952.402z"/>
			<path style="fill:#4A6DB3;" d="M1183.746,833.551c4.078,5.914,8.152,11.84,12.23,17.758c4.043-2.809,8.047-5.68,12.051-8.539
				c-4.141-5.867-8.281-11.746-12.434-17.613C1191.656,827.965,1187.723,830.785,1183.746,833.551z"/>
			<path style="fill:#4A6DB3;" d="M1367.848,676.668c5.16,5.008,10.297,10.027,15.457,15.035c4.332-4.496,8.652-9.004,12.926-13.57
				c-6.906-4.336-12.949-8.566-17.793-12.535C1374.941,669.32,1371.387,672.992,1367.848,676.668z"/>
			<path style="fill:#4A6DB3;" d="M1279.449,759.809c4.637,5.492,9.27,10.992,13.902,16.481c3.762-3.199,7.496-6.441,11.223-9.688
				c-4.703-5.434-9.395-10.883-14.102-16.313C1286.813,753.481,1283.145,756.66,1279.449,759.809z"/>
			<path style="fill:#4A6DB3;" d="M1476.586,583.156c-7.309-3.633-13.742-7.25-18.918-10.734c-3.094,4.027-6.23,8.012-9.371,11.996
				c4.617,4.215,9.66,9.621,14.93,15.883C1467.73,594.629,1472.184,588.914,1476.586,583.156z"/>
			<path style="fill:#4A6DB3;" d="M1078.52,899.074c2.617,5.711,5.18,12.637,7.629,20.422c6.242-3.449,12.453-6.945,18.641-10.5
				c-3.555-6.246-7.102-12.496-10.66-18.742C1088.949,893.231,1083.746,896.172,1078.52,899.074z"/>
			<path style="fill:#4A6DB3;" d="M857.445,995.019c1.418,6.164,2.555,13.465,3.41,21.57c6.988-2.23,13.961-4.508,20.902-6.859
				c-4.039-7.059-7.387-13.629-9.848-19.445C867.102,991.902,862.273,993.461,857.445,995.019z"/>
			<path style="fill:#4A6DB3;" d="M394.617,1051.242c12.766,8.148,25.629,16.074,38.617,23.707
				c68.77,2.59,136.926-0.539,203.918-8.996c-0.871-7.133-1.727-14.273-2.602-21.406
				C555.898,1054.484,475.605,1056.891,394.617,1051.242z"/>
			<path style="fill:#4A6DB3;" d="M1613.227,359.465c-6.48-3.117-12.957-6.227-19.434-9.348c-3.984,8.379-8.078,16.68-12.234,24.934
				c5.352,3.156,11.379,7.453,17.793,12.563C1604.07,378.297,1608.723,368.934,1613.227,359.465z"/>
			<path style="fill:#4A6DB3;" d="M740.316,1026.5c1.488,7.031,2.965,14.066,4.453,21.102c6.188-1.34,12.363-2.734,18.524-4.164
				c-3.344-7.406-6.051-14.273-7.953-20.313C750.336,1024.27,745.332,1025.414,740.316,1026.5z"/>
			<path style="fill:#4A6DB3;" d="M1519.754,483.781c5.008,3.703,10.57,8.582,16.441,14.301c3.922-6.125,7.797-12.289,11.621-18.492
				c-7.656-2.887-14.426-5.844-19.898-8.801C1525.219,475.137,1522.5,479.469,1519.754,483.781z"/>
			<path style="fill:#4A6DB3;" d="M523.207,1606.777c6.039,1.305,12.082,2.555,18.129,3.762c-0.039-8.195,0.313-15.59,1.121-21.766
				c-4.945-1.004-9.887-2.035-14.828-3.098C526.148,1592.707,524.684,1599.746,523.207,1606.777z"/>
			<path style="fill:#4A6DB3;" d="M1130.488,1564.512c2.031,6.895,4.07,13.789,6.102,20.684c5.754-1.672,11.492-3.379,17.227-5.125
				c-2.129-6.867-4.273-13.727-6.398-20.59C1141.793,1561.195,1136.145,1562.875,1130.488,1564.512z"/>
			<path style="fill:#4A6DB3;" d="M1356.746,1473.973c2.48,5.809,4.887,12.777,7.16,20.582c6.512-3.363,12.992-6.801,19.449-10.285
				c-5.242-6.242-9.707-12.125-13.164-17.426C1365.719,1469.238,1361.246,1471.637,1356.746,1473.973z"/>
			<path style="fill:#4A6DB3;" d="M1658.301,1253.125c-4.551,7.813-9.094,15.629-13.824,23.395
				c-2.953-0.449-5.848-0.988-8.785-1.453c-24.34,23.102-49.512,45.086-75.441,65.945c3.551,5.262,7.25,11.649,10.965,18.859
				c56.602-45.305,109.695-95.887,158.516-151.508c-8.98-0.66-17.883-1.484-26.766-2.344
				C1688.434,1222.156,1673.555,1237.883,1658.301,1253.125z"/>
			<path style="fill:#4A6DB3;" d="M1474.457,1404.176c-4.367,2.93-8.762,5.805-13.16,8.676c3.031,5.563,6.09,12.277,9.102,19.816
				c6.344-4.109,12.648-8.273,18.922-12.5C1483.488,1414.5,1478.445,1409.102,1474.457,1404.176z"/>
			<path style="fill:#4A6DB3;" d="M1013.199,1592.371c1.344,7.059,2.703,14.113,4.051,21.18c4.844-0.906,9.688-1.793,14.52-2.758
				c-1.43-7.043-2.871-14.082-4.297-21.125C1022.723,1590.605,1017.961,1591.484,1013.199,1592.371z"/>
			<path style="fill:#4A6DB3;" d="M664.5,1607.188c-5.043-0.508-10.09-1.016-15.137-1.578c-1.086,6.137-2.949,13.281-5.406,21.066
				c7.203,0.828,14.406,1.586,21.613,2.285C664.719,1620.82,664.332,1613.434,664.5,1607.188z"/>
			<path style="fill:#4A6DB3;" d="M771.43,1613.242c-0.5,6.242-1.652,13.531-3.328,21.512c7.387,0.109,14.766,0.145,22.145,0.125
				c-1.652-8.008-2.773-15.316-3.246-21.574C781.809,1613.305,776.621,1613.313,771.43,1613.242z"/>
			<path style="fill:#4A6DB3;" d="M893.172,1608.73c0.102,6.281-0.332,13.656-1.215,21.766c6.078-0.512,12.148-1.074,18.215-1.668
				c-0.734-7.152-1.48-14.301-2.215-21.453C903.035,1607.859,898.105,1608.301,893.172,1608.73z"/>
			<path style="fill:#4A6DB3;" d="M1247.398,1524.238c2.711,6.656,5.43,13.313,8.141,19.969c5.648-2.273,11.27-4.617,16.887-6.965
				c-4.594-6.738-8.445-13.035-11.332-18.645C1256.535,1520.492,1251.98,1522.398,1247.398,1524.238z"/>
			<path style="fill:#4A6DB3;" d="M388.086,1569.773c8.902,2.988,17.824,5.832,26.754,8.605c2.098-6.875,4.184-13.754,6.285-20.629
				c-8.773-2.723-17.539-5.52-26.281-8.449C392.594,1556.129,390.336,1562.949,388.086,1569.773z"/>
			<path style="fill:#4A6DB3;" d="M1279.738,1228.137c0.684,6.254,0.934,13.645,0.797,21.813c7.125-1.332,14.238-2.738,21.344-4.195
				c-3.133-7.535-5.629-14.48-7.297-20.543C1289.637,1226.211,1284.691,1227.199,1279.738,1228.137z"/>
			<path style="fill:#4A6DB3;" d="M669.449,1212.363c6.039,1.922,12.09,3.762,18.148,5.586c2.105-6.871,4.223-13.742,6.324-20.617
				c-4.914-1.48-9.824-2.957-14.723-4.5C676.762,1198.684,673.445,1205.285,669.449,1212.363z"/>
			<path style="fill:#4A6DB3;" d="M440.523,1113.434c6.703,3.73,13.43,7.395,20.188,10.988c2.293-7.766,4.715-14.742,7.211-20.594
				c-4.625-2.473-9.238-4.977-13.836-7.52C450.477,1101.555,445.867,1107.336,440.523,1113.434z"/>
			<path style="fill:#4A6DB3;" d="M325.145,1040.852c8.926,6.316,17.934,12.461,26.98,18.523c3.027-7.488,6.117-14.215,9.168-19.805
				c-7.914-5.328-15.793-10.73-23.609-16.266C333.504,1029.152,329.328,1035.004,325.145,1040.852z"/>
			<path style="fill:#4A6DB3;" d="M1397.738,1199.672c1.309,6.133,2.289,13.461,2.961,21.617c5.992-1.742,11.98-3.512,17.949-5.348
				c-2.082-6.879-4.152-13.766-6.238-20.645C1407.531,1196.797,1402.633,1198.23,1397.738,1199.672z"/>
			<path style="fill:#4A6DB3;" d="M553.066,1168.852c6.918,2.988,13.855,5.902,20.813,8.75c1.535-7.965,3.281-15.137,5.203-21.184
				c-4.781-1.977-9.559-3.949-14.32-5.988C561.727,1156.008,557.758,1162.234,553.066,1168.852z"/>
			<path style="fill:#4A6DB3;" d="M1513.742,1159.18c2.668,6.676,5.332,13.352,8.008,20.023c4.637-1.879,9.281-3.766,13.906-5.703
				c-2.75-6.645-5.492-13.285-8.25-19.934C1522.859,1155.484,1518.301,1157.336,1513.742,1159.18z"/>
			<path style="fill:#4A6DB3;" d="M1755.934,1027.707c-7.559,5.273-15.18,10.426-22.828,15.516
				c3.949,6.004,7.891,12.016,11.844,18.023c7.789-5.18,15.543-10.426,23.246-15.797
				C1764.105,1039.531,1760.023,1033.621,1755.934,1027.707z"/>
			<path style="fill:#4A6DB3;" d="M1648.988,1119.043c-3.398-6.332-6.793-12.672-10.191-19c-4.387,2.379-8.781,4.738-13.184,7.059
				c3.328,6.375,6.641,12.754,9.969,19.129C1640.059,1123.863,1644.527,1121.473,1648.988,1119.043z"/>
			<path style="fill:#4A6DB3;" d="M914.035,1263.914c4.891,0.539,9.785,1.078,14.68,1.551c0.723-7.148,1.461-14.301,2.18-21.453
				c-4.813-0.465-9.621-0.996-14.43-1.52C915.66,1249.637,914.844,1256.777,914.035,1263.914z"/>
			<path style="fill:#4A6DB3;" d="M792.711,1244.715c4.832,1.008,9.664,2.016,14.504,2.969c1.422-7.047,2.852-14.09,4.27-21.137
				c-4.758-0.934-9.508-1.926-14.258-2.918C795.727,1230.66,794.215,1237.688,792.711,1244.715z"/>
			<path style="fill:#4A6DB3;" d="M1160.047,1244.809c0.047,6.297-0.438,13.66-1.371,21.742c7.246-0.621,14.488-1.328,21.723-2.086
				c-2.383-7.785-4.191-14.938-5.285-21.137C1170.09,1243.836,1165.07,1244.359,1160.047,1244.809z"/>
			<path style="fill:#4A6DB3;" d="M1036.754,1249.637c-0.102,7.184-0.223,14.371-0.328,21.559
				c7.188,0.078,14.375,0.086,21.566,0.039c-1.617-7.961-2.73-15.25-3.238-21.547
				C1048.754,1249.715,1042.754,1249.699,1036.754,1249.637z"/>
		</g>
		<g>
			<path style="fill:#F49954;" d="M1078.52,899.074c-0.918-2-1.832-3.898-2.758-5.578c-30.785,16.984-62.293,32.645-94.434,46.938
				c0.82,1.852,1.832,3.84,2.941,5.898c2.984,5.539,6.941,11.754,11.641,18.387c29.352,41.457,86.848,98.715,106.422,101.418
				c9.746-17.293-0.949-98.172-16.184-146.641C1083.699,911.711,1081.137,904.785,1078.52,899.074z"/>
			<path style="fill:#F49954;" d="M740.316,1026.5c-0.512-2.418-1.02-4.84-1.535-7.258c-34.668,7.379-69.75,13.273-105.16,17.641
				c0.313,2.555,0.621,5.109,0.93,7.664c0.875,7.133,1.731,14.273,2.602,21.406c3.844,31.531,7.688,63.066,11.492,94.602
				c21.137,11.078,42.762,21.66,64.871,31.723c17.691-16.734,34.695-33.793,51-51.137c-6.555-31.188-13.152-62.363-19.746-93.539
				C743.281,1040.566,741.805,1033.531,740.316,1026.5z"/>
			<path style="fill:#F49954;" d="M1547.816,479.59c47.5,17.887,129.137,32.687,147.352,23.297
				c-1.328-20.563-56.074-83.645-95.816-115.273c-6.414-5.109-12.441-9.406-17.793-12.563c-1.43-0.848-2.836-1.633-4.164-2.313
				c-16.645,32.848-34.637,64.703-53.871,95.523c1.34,0.84,2.836,1.684,4.395,2.527
				C1533.391,473.746,1540.16,476.703,1547.816,479.59z"/>
			<path style="fill:#F49954;" d="M1367.848,676.668c-1.41-1.371-2.82-2.746-4.23-4.117c-24.734,25.504-50.52,49.859-77.227,73.008
				c1.359,1.574,2.723,3.152,4.082,4.731c4.707,5.43,9.398,10.879,14.102,16.313c21.094,24.398,42.191,48.793,63.262,73.219
				c23.582-2.461,47.336-5.645,71.25-9.551c5.309-23.695,9.914-47.32,13.82-70.84c-23.18-22.594-46.391-45.16-69.602-67.727
				C1378.145,686.695,1373.008,681.676,1367.848,676.668z"/>
			<path style="fill:#F49954;" d="M1247.398,1524.238c-0.828-2.035-1.66-4.066-2.488-6.102
				c-32.594,13.215-65.738,25.031-99.332,35.402c0.613,1.98,1.227,3.957,1.84,5.941c2.125,6.863,4.27,13.723,6.398,20.59
				c9.555,30.813,19.109,61.629,28.703,92.441c22.535,7.238,45.512,13.914,68.895,19.984c14.195-19.469,27.703-39.156,40.52-59.004
				c-12.156-29.754-24.277-59.52-36.395-89.285C1252.828,1537.551,1250.109,1530.895,1247.398,1524.238z"/>
			<path style="fill:#F49954;" d="M1560.25,1341.012c-1.551-2.297-3.082-4.41-4.563-6.238
				c-27.723,22.461-56.32,43.625-85.695,63.461c1.277,1.875,2.793,3.871,4.465,5.941c3.988,4.926,9.031,10.324,14.863,15.992
				c36.492,35.457,102.949,80.895,122.777,79.98c6.59-18.633-17.555-95.07-40.883-140.277
				C1567.5,1352.66,1563.801,1346.273,1560.25,1341.012z"/>
			<path style="fill:#F49954;" d="M421.125,1557.75c-2.102,6.875-4.188,13.754-6.285,20.629
				c-9.555,31.32-19.105,62.652-28.621,93.996c15.438,18.934,31.516,37.594,48.238,55.941c23.418-7.957,46.313-16.535,68.652-25.676
				c6.672-31.957,13.383-63.914,20.098-95.863c1.477-7.031,2.941-14.07,4.422-21.102c0.348-1.652,0.691-3.301,1.039-4.961
				c-35.539-7.547-70.961-16.699-106.156-27.52C422.047,1554.715,421.586,1556.234,421.125,1557.75z"/>
			<path style="fill:#F49954;" d="M786.723,1607.402c0.008,1.832,0.117,3.828,0.277,5.902c0.473,6.258,1.594,13.566,3.246,21.574
				c10.254,49.762,40.547,125.93,57.633,136.324c15.945-11.914,38.582-90.215,44.078-140.707c0.883-8.109,1.316-15.484,1.215-21.766
				c-0.035-2.211-0.117-4.332-0.289-6.25C857.68,1605.648,822.254,1607.297,786.723,1607.402z"/>
			<path style="fill:#F49954;" d="M930.894,1244.012c-0.719,7.152-1.457,14.305-2.18,21.453c-3.234,31.977-6.473,63.949-9.75,95.922
				c17.895,15.438,36.402,30.512,55.512,45.188c20.727-12.41,40.887-25.297,60.469-38.598c0.523-32.258,1-64.52,1.48-96.781
				c0.105-7.188,0.227-14.375,0.328-21.559c0.031-2.07,0.066-4.148,0.098-6.223c-35.156-0.477-70.289-2.469-105.289-5.965
				C931.344,1239.637,931.117,1241.824,930.894,1244.012z"/>
			<path style="fill:#F49954;" d="M579.082,1156.418c-1.922,6.047-3.668,13.219-5.203,21.184
				c-9.637,49.953-11.254,130.098,0.324,146.113c19.281-4.711,70.227-67.039,95.246-111.352c3.996-7.078,7.313-13.68,9.75-19.531
				c1.023-2.449,1.918-4.801,2.606-6.957c-33.773-10.746-67.176-22.992-100.102-36.73
				C580.793,1151.32,579.922,1153.773,579.082,1156.418z"/>
			<path style="fill:#F49954;" d="M1744.949,1061.246c-3.953-6.008-7.895-12.02-11.844-18.023c-0.871-1.328-1.738-2.656-2.613-3.98
				c-30.727,20.301-62.121,39.078-94.094,56.328c0.801,1.492,1.594,2.984,2.398,4.473c3.398,6.328,6.793,12.668,10.191,19
				c15.445,28.762,30.891,57.527,46.305,86.309c2.539,0.262,5.125,0.426,7.672,0.668c8.883,0.859,17.785,1.684,26.766,2.344
				c12.797,0.949,25.68,1.723,38.672,2.266c10.867-22.324,21.039-44.754,30.504-67.273
				C1780.945,1115.965,1762.945,1088.605,1744.949,1061.246z"/>
			<path style="fill:#F49954;" d="M1397.738,1199.672c-0.434-2.035-0.895-3.984-1.406-5.738
				c-34.121,9.914-68.574,18.313-103.238,25.203c0.379,1.891,0.898,3.945,1.488,6.074c1.668,6.063,4.164,13.008,7.297,20.543
				c19.512,46.902,63.297,115.637,81.961,122.57c13.457-14.785,21.051-96.402,16.859-147.035
				C1400.027,1213.133,1399.047,1205.805,1397.738,1199.672z"/>
		</g>
		<g>
			<path style="fill:#E1DAD7;" d="M881.758,1009.731c25.254,44.102,76.703,106.352,95.887,110.937
				c11.383-16.238,8.699-97.402-1.66-147.168c-1.664-7.981-3.523-15.129-5.555-21.098c-0.754-2.223-1.527-4.324-2.328-6.188
				c-32.309,13.914-65.238,26.445-98.695,37.551c0.672,2.031,1.535,4.234,2.504,6.52
				C874.371,996.102,877.719,1002.672,881.758,1009.731z"/>
			<path style="fill:#E1DAD7;" d="M1620.113,621.481c0.598-20.344-47.52-87.969-83.918-123.399
				c-5.871-5.719-11.434-10.598-16.441-14.301c-1.445-1.066-2.855-2.07-4.199-2.934c-19.578,30.523-40.391,60.004-62.355,88.391
				c1.344,1.047,2.867,2.109,4.469,3.184c5.176,3.484,11.609,7.102,18.918,10.734
				C1522.059,605.738,1601.219,628.789,1620.113,621.481z"/>
			<path style="fill:#E1DAD7;" d="M1208.027,842.769c18.543,26.242,37.082,52.488,55.582,78.75
				c23.652-0.101,47.547-0.891,71.645-2.387c7.531-22.996,14.348-45.984,20.457-68.93c-20.766-24.66-41.563-49.285-62.359-73.914
				c-4.633-5.488-9.266-10.988-13.902-16.481c-1.359-1.609-2.715-3.219-4.074-4.828c-26.969,22.813-54.863,44.414-83.602,64.762
				c1.277,1.801,2.551,3.609,3.82,5.414C1199.746,831.023,1203.887,836.902,1208.027,842.769z"/>
			<path style="fill:#E1DAD7;" d="M1356.746,1473.973c-0.977-2.289-1.961-4.434-2.957-6.328
				c-31.219,16.375-63.09,31.383-95.539,44.984c0.789,1.871,1.77,3.887,2.844,5.969c2.887,5.609,6.738,11.906,11.332,18.645
				c28.641,42,85.199,100.262,104.789,103.336c10.016-16.988,0.91-97.23-13.309-146.023
				C1361.633,1486.75,1359.227,1479.781,1356.746,1473.973z"/>
			<path style="fill:#E1DAD7;" d="M542.457,1588.773c-0.809,6.176-1.16,13.57-1.121,21.766
				c0.246,50.789,15.527,132.367,30.59,146.059c18.375-8.527,56.727-81.516,72.031-129.922c2.457-7.785,4.32-14.93,5.406-21.066
				c0.336-1.898,0.625-3.734,0.809-5.426c-35.68-3.895-71.352-9.371-106.914-16.469
				C542.949,1585.281,542.691,1586.992,542.457,1588.773z"/>
			<path style="fill:#E1DAD7;" d="M1013.199,1592.371c-0.414-2.168-0.832-4.336-1.246-6.504
				c-34.586,6.563-69.504,11.648-104.645,15.23c0.215,2.09,0.434,4.184,0.648,6.277c0.734,7.152,1.481,14.301,2.215,21.453
				c3.293,32.059,6.59,64.125,9.93,96.188c20.754,11.523,42.039,22.578,63.82,33.117c17.801-16.301,34.949-32.953,51.441-49.914
				c-6.063-31.551-12.09-63.109-18.113-94.668C1015.902,1606.484,1014.543,1599.43,1013.199,1592.371z"/>
			<path style="fill:#E1DAD7;" d="M916.465,1242.492c0.25-2.188,0.5-4.375,0.746-6.563c-34.961-3.902-69.777-9.316-104.348-16.219
				c-0.457,2.277-0.918,4.555-1.379,6.836c-1.418,7.047-2.848,14.09-4.27,21.137c-6.32,31.379-12.645,62.762-19.004,94.137
				c16.344,17.109,33.328,33.93,50.938,50.41c21.875-10.332,43.215-21.184,64.016-32.516c3.648-31.926,7.262-63.863,10.871-95.801
				C914.844,1256.777,915.66,1249.637,916.465,1242.492z"/>
			<path style="fill:#E1DAD7;" d="M564.762,1150.43c1.34-2.469,2.52-4.824,3.465-7.004c-32.793-14.156-65.098-29.793-96.812-46.934
				c-1.176,2.176-2.34,4.648-3.492,7.336c-2.496,5.852-4.918,12.828-7.211,20.594c-14.422,48.828-23.699,128.176-13.664,145.285
				c19.742-2.699,76.594-59.297,106.02-100.855C557.758,1162.234,561.727,1156.008,564.762,1150.43z"/>
			<path style="fill:#E1DAD7;" d="M1635.582,1126.23c-3.328-6.375-6.641-12.754-9.969-19.129c-0.789-1.508-1.578-3.023-2.367-4.539
				c-32.117,16.832-64.805,32.152-97.934,45.938c0.699,1.691,1.398,3.383,2.094,5.066c2.758,6.648,5.5,13.289,8.25,19.934
				c12.441,30.031,24.887,60.066,37.293,90.117c20.574,4.348,41.535,8.113,62.742,11.449c2.938,0.465,5.832,1.004,8.785,1.453
				c4.73-7.766,9.273-15.582,13.824-23.395c7.742-13.309,15.316-26.656,22.512-40.082
				C1665.758,1184.09,1650.668,1155.156,1635.582,1126.23z"/>
			<path style="fill:#E1DAD7;" d="M1279.738,1228.137c-0.242-2.223-0.52-4.348-0.875-6.262
				c-34.727,6.469-69.66,11.434-104.699,14.883c0.199,2.031,0.539,4.25,0.949,6.57c1.094,6.199,2.902,13.352,5.285,21.137
				c14.855,48.586,51.465,120.965,69.227,129.676c14.723-13.344,30.082-93.371,30.91-144.191
				C1280.672,1241.781,1280.422,1234.391,1279.738,1228.137z"/>
		</g>
		<g>
			<path style="fill:#52A14E;" d="M857.445,995.019c-0.559-2.434-1.152-4.73-1.801-6.773
				c-33.598,10.707-67.719,19.992-102.266,27.793c0.492,2.188,1.168,4.578,1.961,7.086c1.902,6.039,4.609,12.906,7.953,20.313
				c20.914,46.352,65.941,113,84.598,119.402c12.941-15.012,18.305-95.672,12.965-146.25
				C860,1008.484,858.863,1001.184,857.445,995.019z"/>
			<path style="fill:#52A14E;" d="M1396.23,678.133c43.027,26.988,118.961,57.781,138.324,52.531
				c2.512-20-38.617-91.496-71.328-130.363c-5.27-6.262-10.313-11.668-14.93-15.883c-1.43-1.301-2.828-2.535-4.168-3.598
				c-22.277,28.086-45.688,55.07-70.141,80.902c1.328,1.254,2.848,2.555,4.449,3.875
				C1383.281,669.566,1389.324,673.797,1396.23,678.133z"/>
			<path style="fill:#52A14E;" d="M1183.746,833.551c-1.273-1.844-2.539-3.691-3.809-5.535
				c-28.957,19.996-58.75,38.727-89.273,56.141c1.156,2.031,2.309,4.067,3.465,6.098c3.559,6.246,7.105,12.496,10.66,18.742
				c15.824,27.813,31.648,55.625,47.445,83.457c23.508,2.219,47.32,3.785,71.398,4.68c9.699-22.125,18.684-44.309,26.941-66.504
				c-18.176-26.453-36.387-52.887-54.598-79.32C1191.898,845.391,1187.824,839.465,1183.746,833.551z"/>
			<path style="fill:#52A14E;" d="M1461.297,1412.852c-1.25-2.313-2.504-4.453-3.742-6.336
				c-29.594,19.461-59.961,37.578-90.988,54.332c1.023,1.887,2.266,3.91,3.625,5.996c3.457,5.301,7.922,11.184,13.164,17.426
				c32.703,38.945,94.492,91.078,114.277,92.18c8.34-17.871-8.379-96.551-27.234-143.781
				C1467.387,1425.129,1464.328,1418.414,1461.297,1412.852z"/>
			<path style="fill:#52A14E;" d="M664.5,1607.188c-0.168,6.246,0.219,13.633,1.07,21.773
				c5.277,50.527,28.199,129.758,44.34,141.828c17.215-10.289,47.758-86.332,58.191-136.035c1.676-7.98,2.828-15.27,3.328-21.512
				c0.164-2.07,0.285-4.063,0.297-5.887c-35.566-0.328-71.242-2.207-106.922-5.664
				C664.641,1603.391,664.555,1605.258,664.5,1607.188z"/>
			<path style="fill:#52A14E;" d="M1130.488,1564.512c-0.656-2.242-1.32-4.488-1.98-6.727
				c-33.727,9.891-67.883,18.332-102.375,25.301c0.445,2.195,0.895,4.383,1.34,6.582c1.426,7.043,2.867,14.082,4.297,21.125
				c6.387,31.461,12.773,62.918,19.199,94.359c21.707,9.469,43.914,18.398,66.574,26.77c16.07-17.949,31.469-36.18,46.188-54.645
				c-9.07-30.691-18.109-61.391-27.141-92.082C1134.559,1578.301,1132.52,1571.406,1130.488,1564.512z"/>
			<path style="fill:#52A14E;" d="M693.922,1197.332c-2.102,6.875-4.219,13.746-6.324,20.617
				c-9.336,30.496-18.68,60.992-28.055,91.477c14.672,18.656,30.004,37.086,45.984,55.223c22.852-8.121,45.215-16.813,67.078-26.051
				c6.727-31.285,13.418-62.586,20.105-93.883c1.504-7.027,3.016-14.055,4.516-21.086c0.488-2.281,0.98-4.563,1.469-6.844
				c-34.496-7.32-68.742-16.149-102.617-26.469C695.359,1192.656,694.641,1194.996,693.922,1197.332z"/>
			<path style="fill:#52A14E;" d="M394.617,1051.242c-9.695-6.191-19.355-12.477-28.914-18.965c-1.457,2.137-2.93,4.582-4.41,7.293
				c-3.051,5.59-6.141,12.316-9.168,19.805c-19.102,47.223-35.902,125.074-27.488,143.156c20.035-0.59,82.293-50.789,115.887-89.098
				c5.344-6.098,9.953-11.879,13.563-17.125c1.672-2.434,3.145-4.758,4.352-6.93c-8.445-4.695-16.844-9.52-25.203-14.43
				C420.246,1067.316,407.383,1059.391,394.617,1051.242z"/>
			<path style="fill:#52A14E;" d="M1521.75,1179.203c-2.676-6.672-5.34-13.348-8.008-20.023c-0.684-1.699-1.367-3.406-2.047-5.105
				c-33.258,13.379-66.953,25.238-100.988,35.582c0.574,1.879,1.141,3.762,1.703,5.641c2.086,6.879,4.156,13.766,6.238,20.645
				c9.379,30.984,18.758,61.973,28.098,92.973c22.652,7.305,45.777,14.027,69.344,20.121c14.633-19.535,28.594-39.313,41.871-59.281
				C1545.914,1239.559,1533.832,1209.383,1521.75,1179.203z"/>
			<path style="fill:#52A14E;" d="M1114.035,1406.664c15.875-11.816,38.816-89.609,44.641-140.113
				c0.934-8.082,1.418-15.445,1.371-21.742c-0.02-2.387-0.086-4.664-0.266-6.715c-35.059,3.035-70.211,4.567-105.355,4.59
				c0,2.145,0.129,4.516,0.328,7.004c0.508,6.297,1.621,13.586,3.238,21.547C1068.086,1321.039,1097.293,1396.285,1114.035,1406.664
				z"/>
		</g>
	</g>
	<g>
		<path style="fill:#E1DAD7;" d="M721.086,1228.574c-5.254-1.656-10.859,1.262-12.516,6.52l-19.016,60.289
			c-1.66,5.258,1.254,10.859,6.512,12.52c5.254,1.656,10.859-1.258,12.516-6.516l19.02-60.297
			C729.262,1235.836,726.344,1230.234,721.086,1228.574z"/>
		<path style="fill:#E1DAD7;" d="M797.711,1030.395c-1.68-5.25-7.301-8.137-12.547-6.453c-5.25,1.68-8.137,7.301-6.453,12.547
			l10.484,32.695c1.68,5.246,7.297,8.137,12.547,6.457c5.246-1.688,8.137-7.305,6.453-12.551L797.711,1030.395z"/>
		<path style="fill:#E1DAD7;" d="M1140.008,888.984c-2.492-4.914-8.492-6.879-13.41-4.391c-4.914,2.492-6.879,8.496-4.391,13.41
			l32.625,64.391c2.492,4.918,8.496,6.883,13.41,4.395c4.918-2.492,6.879-8.496,4.395-13.41L1140.008,888.984z"/>
		<path style="fill:#E1DAD7;" d="M1090.664,1259.73c-5.508,0-9.977,4.469-9.977,9.977v52.309c0,5.508,4.469,9.977,9.977,9.977
			c5.512,0,9.98-4.469,9.98-9.977v-52.309C1100.645,1264.199,1096.176,1259.73,1090.664,1259.73z"/>
		<path style="fill:#E1DAD7;" d="M1479.457,1274.309l-22.461-66.859c-1.758-5.223-7.414-8.035-12.641-6.281
			c-5.223,1.754-8.031,7.41-6.277,12.637l22.461,66.856c1.754,5.223,7.41,8.039,12.633,6.281
			C1478.398,1285.188,1481.211,1279.531,1479.457,1274.309z"/>
		<path style="fill:#E1DAD7;" d="M1447.48,1492.328l-24.945-19.68c-4.328-3.41-10.602-2.676-14.016,1.652
			c-3.41,4.328-2.672,10.602,1.656,14.016l24.945,19.68c4.324,3.414,10.594,2.676,14.016-1.652
			C1452.547,1502.02,1451.809,1495.742,1447.48,1492.328z"/>
		<path style="fill:#E1DAD7;" d="M1073.219,1603.617c-0.945-5.434-6.109-9.074-11.539-8.133s-9.066,6.105-8.129,11.535
			l11.227,64.844c0.941,5.426,6.102,9.066,11.535,8.125c5.426-0.938,9.066-6.102,8.133-11.535L1073.219,1603.617z"/>
		<path style="fill:#E1DAD7;" d="M699.066,1627.758c-5.508,0-9.977,4.465-9.977,9.977v41.063c0,5.508,4.469,9.977,9.977,9.977
			c5.512,0,9.98-4.469,9.98-9.977v-41.063C709.047,1632.223,704.578,1627.758,699.066,1627.758z"/>
	</g>
</g>
</svg>
